<svg width="12" height="7" viewBox="0 0 12 7" fill="none" xmlns="http://www.w3.org/2000/svg">
<path d="M0 5.95144C0 5.67287 0.112428 5.4058 0.312389 5.20935L4.52315 1.07264H6.02339V2.55448L1.81095 6.69284C1.61195 6.88834 1.342 6.99809 1.06133 6.99809C0.476099 6.99809 0 6.52949 0 5.95144Z" fill="white"/>
<path d="M7.48753 1.07264L11.6885 5.21126C11.8879 5.40774 12 5.67452 12 5.95275C12 6.53113 11.5245 7 10.9389 7C10.6579 7 10.388 6.88992 10.189 6.6939L5.98728 2.55448V1.07264L7.48753 1.07264Z" fill="white"/>
<path d="M5.29375 0.289347C5.68434 -0.0964488 6.31761 -0.0964493 6.7082 0.289347L7.50122 1.07264H4.50073L5.29375 0.289347Z" fill="white"/>
</svg>
