<svg width="18" height="18" viewBox="0 0 18 18" fill="none" xmlns="http://www.w3.org/2000/svg">
<path d="M2.61336 3.09315C2.83424 1.32607 4.33639 0 6.11722 0C6.60476 0 7 0.395235 7 0.882782V1.25768C7 1.66765 6.66765 2 6.25768 2C5.53193 2 4.91255 2.52469 4.79324 3.24057L4.0754 7.54762C4.03189 7.80867 3.80603 8 3.54138 8C3.24238 8 3 8.24238 3 8.54138V9.45862C3 9.75762 3.24238 10 3.54138 10C3.80603 10 4.03189 10.1913 4.0754 10.4524L4.79324 14.7594C4.91255 15.4753 5.53193 16 6.25768 16C6.66765 16 7 16.3323 7 16.7423V17.1172C7 17.6048 6.60476 18 6.11722 18C4.33639 18 2.83424 16.6739 2.61336 14.9069L2 10H1C0.447715 10 0 9.55228 0 9C0 8.44772 0.447715 8 1 8H2L2.61336 3.09315Z" fill="white"/>
<rect x="6" y="6" width="6" height="6" rx="2" fill="white"/>
<path d="M15.3866 14.9069C15.1658 16.6739 13.6636 18 11.8828 18C11.3952 18 11 17.6048 11 17.1172L11 16.7423C11 16.3323 11.3323 16 11.7423 16C12.4681 16 13.0874 15.4753 13.2068 14.7594L13.9246 10.4524C13.9681 10.1913 14.194 10 14.4586 10C14.7576 10 15 9.75762 15 9.45862L15 8.54138C15 8.24238 14.7576 8 14.4586 8C14.194 8 13.9681 7.80867 13.9246 7.54762L13.2068 3.24057C13.0874 2.52469 12.4681 2 11.7423 2C11.3323 2 11 1.66765 11 1.25768L11 0.882782C11 0.395234 11.3952 -5.77407e-07 11.8828 -5.34784e-07C13.6636 -3.79099e-07 15.1658 1.32607 15.3866 3.09315L16 8L17 8C17.5523 8 18 8.44772 18 9C18 9.55228 17.5523 10 17 10L16 10L15.3866 14.9069Z" fill="white"/>
</svg>
